Coordinates
version=1
nRows=8
nColumns=63
inDegrees=yes

Units are S.I. units (second, meters, Newtons, ...)
If the header above contains a line with 'inDegrees', this indicates whether rotational values are in degrees (yes) or radians (no).

endheader
time	pelvis_tilt	pelvis_list	pelvis_rotation	pelvis_tx	pelvis_ty	pelvis_tz	hip_flexion_r	hip_adduction_r	hip_rotation_r	knee_angle_r	knee_angle_r_beta	ankle_angle_r	subtalar_angle_r	mtp_angle_r	hip_flexion_l	hip_adduction_l	hip_rotation_l	knee_angle_l	knee_angle_l_beta	ankle_angle_l	subtalar_angle_l	mtp_angle_l	L5_S1_Flex_Ext	L5_S1_Lat_Bending	L5_S1_axial_rotation	L4_L5_Flex_Ext	L4_L5_Lat_Bending	L4_L5_axial_rotation	L3_L4_Flex_Ext	L3_L4_Lat_Bending	L3_L4_axial_rotation	L2_L3_Flex_Ext	L2_L3_Lat_Bending	L2_L3_axial_rotation	L1_L2_Flex_Ext	L1_L2_Lat_Bending	L1_L2_axial_rotation	L1_T12_Flex_Ext	L1_T12_Lat_Bending	L1_T12_axial_rotation	Abs_r3	Abs_r2	Abs_r1	Abs_t1	Abs_t2	neck_flexion	neck_bending	neck_rotation	arm_flex_r	arm_add_r	arm_rot_r	elbow_flex_r	pro_sup_r	wrist_flex_r	wrist_dev_r	arm_flex_l	arm_add_l	arm_rot_l	elbow_flex_l	pro_sup_l	wrist_flex_l	wrist_dev_l
      2.71666667	     -0.54551212	     -7.88557989	     98.05629497	      0.19736922	      0.99411364	      0.47184887	     -1.65825065	      0.32999264	     -5.75891859	      7.95405967	      0.13882453	     31.07333303	     -0.09195889	      0.00000000	     -1.48555744	      1.29805476	      7.08821455	      6.60037545	      0.11519828	     28.66262563	     -3.03349805	      0.00000000	     -0.27946823	      0.56025900	     -0.13348764	     -0.51900045	      0.74514447	     -0.14183062	     -0.45913835	      1.36221373	     -0.14183062	     -0.31940424	      1.36221373	     -0.11680168	     -0.25951420	      1.14248015	     -0.10845871	     -0.15968815	      0.86784119	     -0.10011573	     -1.99621362	      6.33776184	     -0.74241820	      0.00000000	      0.00000000	     12.72152813	      1.95087108	     22.92182401	      2.65164128	    -12.35817882	     51.76069977	     46.40600901	     55.67271349	      2.27665377	      9.90357383	      3.09954032	     -5.57384737	     46.65277386	     48.40429135	     88.97527386	      5.83627075	     -1.11669790
      2.73333333	     -0.68069163	     -7.92866580	     98.36579943	      0.19755593	      0.99384279	      0.47267920	     -1.61738801	      0.22743087	     -6.02978624	      7.96904195	      0.13908602	     31.19963653	     -0.13554647	      0.00000000	     -1.24603765	      1.39953501	      7.14706195	      6.91587812	      0.12070484	     28.74197743	     -2.91864474	      0.00000000	     -0.27337966	      0.52179777	     -0.13956077	     -0.50769337	      0.69399103	     -0.14828332	     -0.44913545	      1.26869909	     -0.14828332	     -0.31244562	      1.26869909	     -0.12211568	     -0.25386035	      1.06405001	     -0.11339313	     -0.15620914	      0.80826474	     -0.10467058	     -1.95272358	      5.90268070	     -0.77619516	      0.00000000	      0.00000000	     13.10381458	      2.00303903	     21.95516283	      3.25311607	    -12.42679376	     53.49739809	     46.17042462	     52.74532674	      2.21737966	      9.11341283	      3.24314349	     -5.66076640	     46.45993055	     48.51036228	     88.95528033	      6.40028230	     -0.94866720
      2.75000000	     -0.76608948	     -8.01180468	     98.47620755	      0.19796533	      0.99336785	      0.47348883	     -1.55430974	      0.14435552	     -6.42002707	      7.89639065	      0.13781802	     31.33986871	      0.27796559	      0.00000000	     -0.98298037	      1.41891098	      6.38880694	      7.21422284	      0.12591194	     28.99428038	     -1.85373522	      0.00000000	     -0.26530441	      0.49180668	     -0.09526544	     -0.49269683	      0.65410288	     -0.10121953	     -0.43586862	      1.19577875	     -0.10121953	     -0.30321641	      1.19577875	     -0.08335726	     -0.24636168	      1.00289217	     -0.07740317	     -0.15159494	      0.76180854	     -0.07144908	     -1.89504289	      5.56341548	     -0.52983777	      0.00000000	      0.00000000	     13.44023439	      2.08906764	     21.12488221	      3.39694977	    -12.41660542	     53.81288617	     46.21041392	     51.80752418	      2.09781774	      9.02539314	      3.51293469	     -5.84961773	     46.92273000	     48.83050463	     88.88391999	      5.99484827	     -0.70768289
      2.76666667	     -0.87923557	     -7.99895165	     98.61447781	      0.19827014	      0.99299157	      0.47418423	     -1.56443742	      0.04939840	     -6.78984952	      7.93368325	      0.13846889	     31.42087392	      0.46872952	      0.00000000	     -0.94817066	      1.45948239	      5.95342072	      7.28802516	      0.12720004	     29.07974438	     -0.99797963	      0.00000000	     -0.26852564	      0.46129389	     -0.07986031	     -0.49867897	      0.61352087	     -0.08485157	     -0.44116078	      1.12158996	     -0.08485157	     -0.30689796	      1.12158996	     -0.06987777	     -0.24935291	      0.94067049	     -0.06488650	     -0.15343555	      0.71454423	     -0.05989523	     -1.91805182	      5.21824871	     -0.44415906	      0.00000000	      0.00000000	     13.42526910	      2.31160063	     20.37913827	      3.51040462	    -12.37427303	     54.04283686	     46.26239436	     50.71250578	      2.13646829	      9.17813775	      3.66288507	     -5.92196614	     46.94662851	     48.97615520	     88.87972231	      5.96509686	     -0.62687277
      2.78333333	     -0.98172785	     -7.97274209	     98.72705491	      0.19837869	      0.99258111	      0.47473264	     -1.60758128	     -0.04757537	     -7.20105818	      7.95801317	      0.13889353	     31.45194193	      0.68986708	      0.00000000	     -0.97000418	      1.50676543	      5.69051375	      7.30910536	      0.12756795	     29.18873619	     -0.20788736	      0.00000000	     -0.27071332	      0.43743782	     -0.09502391	     -0.50274171	      0.58179230	     -0.10096290	     -0.44475491	      1.06358631	     -0.10096290	     -0.30939825	      1.06358631	     -0.08314592	     -0.25138439	      0.89202320	     -0.07720692	     -0.15468559	      0.67759118	     -0.07126793	     -1.93367818	      4.94838410	     -0.52849446	      0.00000000	      0.00000000	     13.32841307	      2.61063893	     19.88928415	      3.51340280	    -12.30426729	     54.03002848	     46.34308961	     49.44230437	      2.13996808	      9.54029237	      3.72937331	     -5.99232903	     46.87703294	     49.12935457	     88.86885342	      6.14570581	     -0.52657864
      2.80000000	     -1.02929916	     -8.01286472	     98.82022266	      0.19855996	      0.99207923	      0.47547389	     -1.53499033	     -0.11108237	     -7.65561509	      8.05128776	      0.14052148	     31.45826078	      0.97611570	      0.00000000	     -0.88978953	      1.51542410	      5.60326046	      7.36779754	      0.12859233	     29.34094656	      0.51264991	      0.00000000	     -0.26540379	      0.42097556	     -0.12481109	     -0.49288137	      0.55989749	     -0.13261178	     -0.43603188	      1.02355997	     -0.13261178	     -0.30332999	      1.02355997	     -0.10920970	     -0.24645396	      0.85845335	     -0.10140901	     -0.15165172	      0.65209114	     -0.09360832	     -1.89575270	      4.76215969	     -0.69416184	      0.00000000	      0.00000000	     13.19906511	      2.86978430	     19.64368906	      3.42039304	    -12.21471381	     53.76158248	     46.56061562	     48.21958590	      1.98579016	     10.14136910	      3.73184654	     -6.06537648	     46.65369296	     49.30117264	     88.90272373	      6.35329724	     -0.32031367
      2.81666667	     -1.02726694	     -8.06283386	     99.06477821	      0.19810302	      0.99147000	      0.47603479	     -1.50446168	     -0.23995054	     -9.64298835	      8.11591141	      0.14164938	     31.81465997	      3.13109338	      0.00000000	     -0.87581061	      1.64551681	      7.84183198	      7.28337636	      0.12711890	     29.07606665	     -1.92459338	      0.00000000	     -0.25588230	      0.41587165	     -0.21474558	     -0.47519902	      0.55310929	     -0.22816718	     -0.42038903	      1.01115033	     -0.22816718	     -0.29244788	      1.01115033	     -0.18790238	     -0.23761230	      0.84804547	     -0.17448078	     -0.14621115	      0.64418518	     -0.16105918	     -1.82774168	      4.70442326	     -1.19435048	      0.00000000	      0.00000000	     13.23844659	      3.14988000	     19.71784392	      3.26605243	    -12.19371125	     53.47567070	     47.04621693	     46.28120864	      1.06262320	     11.32879325	      3.43186329	     -5.96865844	     45.55410024	     49.53318942	     88.96148826	      7.65563037	      0.52850091
      2.83333333	     -1.04258921	     -8.10226678	     99.00792693	      0.19828497	      0.99087413	      0.47658071	     -1.46704593	     -0.27134275	     -9.73687445	      8.11879224	      0.14169966	     31.77193218	      3.23935707	      0.00000000	     -0.74943208	      1.65460172	      7.58614755	      7.47027170	      0.13038084	     29.57603380	     -1.24377001	      0.00000000	     -0.25346455	      0.40997362	     -0.21868944	     -0.47070902	      0.54526491	     -0.23235753	     -0.41641691	      0.99680986	     -0.23235753	     -0.28968464	      0.99680986	     -0.19135326	     -0.23536718	      0.83601820	     -0.17768517	     -0.14482964	      0.63504914	     -0.16401708	     -1.81047194	      4.63770358	     -1.21628506	      0.00000000	      0.00000000	     13.41316618	      3.22144154	     19.63936217	      3.04089881	    -12.18145456	     53.00770289	     47.33914872	     46.16314396	      0.96411994	     11.29196178	      3.49083068	     -6.15441376	     45.80158939	     49.82035624	     88.95995516	      7.33814436	      0.58084453
